<svg width="1086" height="1024" viewBox="0 0 1086 1024" fill="none" xmlns="http://www.w3.org/2000/svg">
<path fill-rule="evenodd" clip-rule="evenodd" d="M656.018 165.217L733.806 117.317C736.829 115.454 740.496 114.942 743.915 115.902C747.333 116.864 750.195 119.21 751.807 122.375C757.351 133.259 768.696 152.021 774.781 165.826C777.586 172.191 779.222 177.905 779.693 182.178C781.8 187.914 790.272 208.64 805.598 218.284C806.524 218.869 807.369 219.567 808.117 220.367C808.117 220.367 834.162 248.392 844.9 266.521C846.131 268.082 851.584 274.611 860.107 279.411C860.398 279.576 860.682 279.751 860.961 279.937C860.961 279.937 929.203 325.949 951.932 400.168C952.799 401.065 953.568 402.169 954.187 403.529C989.242 454.608 983.441 485.192 982.189 490.756C981.969 491.726 981.774 492.361 981.774 492.361L981.77 492.354C981.061 494.81 979.608 497.046 977.528 498.714C966.631 507.462 667.766 683.62 667.777 683.613C661.359 687.402 655.048 691.087 648.805 694.692C555.378 748.631 482.408 782.153 448.131 795.26C448.072 795.284 448.014 795.306 447.954 795.326C447.954 795.326 447.228 795.591 447.365 795.541C310.152 847.487 230.132 858.36 230.132 858.36C225.532 858.991 220.958 857.067 218.191 853.341C187.432 811.902 199.611 759.358 199.611 759.358C199.635 759.256 199.662 759.153 199.688 759.05C199.872 758.345 200.064 757.46 200.33 756.677C205.299 742.039 218.519 727.78 235.084 715.498C256.192 699.847 282.512 687.018 298.722 679.189C305.295 672.216 312.864 663.864 318.152 656.701C317.057 655.557 316.024 654.441 315.051 653.374C309.207 646.924 306.674 638.115 308.246 629.518C311.186 613.427 325.372 597.633 328.93 594.044C330.026 592.884 331.233 591.818 332.541 590.843C333.403 590.199 334.319 589.607 335.233 589.079C335.673 588.825 336.121 588.574 336.399 588.438C341.21 585.944 346.438 584.982 351.505 585.402C351.127 583.398 350.968 581.341 351.042 579.261C351.704 560.43 367.426 542.821 372.452 537.941C374.149 536.304 375.985 534.936 377.938 533.808C380.829 532.139 383.951 531.028 387.149 530.479L387.127 530.369C382.733 505.928 400.632 487.702 412.277 480.978C415.406 479.172 418.775 478.026 422.205 477.523C422.15 475.576 422.299 473.607 422.657 471.652C425.235 457.772 435.454 446.633 442.379 440.536C440.797 429.191 442.614 413.96 454.686 399.716C455.483 398.767 456.333 397.886 457.229 397.068C453.462 390.02 452.452 382.327 453.09 374.907C454.181 362.243 460.395 350.676 462.317 347.426C464.181 344.242 466.607 341.547 469.402 339.408C467.592 336.484 466.315 333.215 465.68 329.742C461.042 304.401 473.732 287.705 486.565 280.296C488.216 279.343 489.263 278.885 489.454 278.801L490.723 278.283C486.079 272.423 483.868 264.799 484.93 257.08C487.14 241.029 493.571 227.731 494.318 226.208C496.855 221.112 500.781 217.077 505.403 214.408C509.502 212.041 514.172 210.728 518.96 210.65C523.464 194.056 528.073 176.22 528.073 176.22C528.927 172.918 531.074 170.096 534.028 168.39L546.28 161.316C550.263 159.016 555.177 159.045 559.132 161.395C559.132 161.395 584.22 176.502 599.788 190.437C607.933 186.018 603.535 189.468 656.018 165.217Z" fill="white" style="fill:white;fill-opacity:1;"/>
</svg>
