<svg width="1069" height="1024" viewBox="0 0 1069 1024" fill="none" xmlns="http://www.w3.org/2000/svg">
<path fill-rule="evenodd" clip-rule="evenodd" d="M645.024 176.445C580.586 206.236 601.967 194.172 580.586 206.236C568.732 191.978 535.631 172.325 535.631 172.325L523.379 179.399C523.379 179.399 516.241 207.015 511.036 225.592L507.873 224.372C503.416 222.666 498.621 223.185 494.754 225.418C492.227 226.876 490.084 229.083 488.698 231.869C488.068 233.151 482.454 244.778 480.523 258.809C479.651 265.143 482.815 271.36 488.455 274.368C489.926 275.156 492.583 276.538 496.077 278.182C494.83 282.525 493.621 286.742 492.45 290.789L488.179 289.581C484.804 288.626 480.837 289.031 477.614 290.417C477.614 290.417 476.984 290.688 475.916 291.305C466.584 296.693 457.811 309.022 461.183 327.449C462.074 332.313 465.266 336.442 469.749 338.549C471.829 339.524 474.726 340.819 478.134 342.242C477.722 344.135 477.306 346.029 476.921 347.918L473.882 346.998C469.715 345.742 465.353 346.331 461.788 348.389C459.573 349.668 457.65 351.516 456.285 353.847C453.665 358.277 441.3 381.126 454.889 395.911C456.509 397.662 458.486 399.013 460.709 399.856C463.012 400.73 465.352 401.607 467.742 402.476C467.701 402.825 467.675 403.041 467.675 403.041C467.475 403.397 467.295 403.885 467.105 404.288C465.709 403.85 464.501 403.471 463.692 403.203C459.521 401.886 455.075 402.435 451.426 404.542C449.928 405.407 448.566 406.525 447.411 407.898C435.475 421.983 436.614 437.27 439.605 445.602C439.31 445.772 439.012 445.954 438.733 446.152C435.786 448.139 420.964 458.836 418.154 473.968C417.256 478.856 418.782 483.881 422.245 487.429C423.959 489.192 425.649 490.862 427.323 492.519C425.822 493.659 424.316 495.022 422.791 496.608L419.094 493.508C414.172 489.387 407.199 488.771 401.628 491.988C393.053 496.939 379.401 510.116 382.637 528.113C383.234 531.418 384.895 534.43 387.372 536.694L394.41 543.135C392.07 548.136 390.674 551.416 390.674 551.416C390.523 551.472 390.313 551.663 390.151 551.767C388.653 550.243 387.294 548.778 385.685 547.196C380.689 542.249 373.126 541.448 367.289 544.817C366.216 545.437 365.207 546.191 364.274 547.091C360.297 550.953 347.272 564.709 346.744 579.703C346.567 584.722 348.874 589.504 352.901 592.494L357.729 596.089C356.128 598.554 349.715 604.089 346.774 607.279C346.513 606.636 345.858 606.301 345.495 605.673C341.391 598.565 332.456 595.988 325.242 599.726C325.022 599.836 324.802 599.962 324.584 600.088C324.099 600.369 323.611 600.679 323.154 601.021C322.427 601.564 321.763 602.145 321.162 602.78C318.082 605.889 306.156 618.629 303.75 631.799C302.891 636.496 304.276 641.307 307.468 644.831C310.256 647.891 313.616 651.404 317.353 654.944C312.506 664.284 299.55 678.875 289.369 689.608C263.618 702.052 206.042 729.302 195.365 760.76C195.2 761.248 195.103 761.809 194.989 762.249C194.989 762.249 184.072 808.945 211.396 845.756C211.396 845.756 290.379 834.929 425.855 783.642L426.581 783.377C460.551 770.386 532.849 737.13 625.438 683.674C631.647 680.089 637.921 676.425 644.305 672.657C644.305 672.657 941.717 497.494 952.559 488.792C952.549 488.79 961.553 460.756 925.701 409.28C925.501 408.994 925.153 408.763 925.153 408.763C906.098 334.619 836.858 290.49 836.858 290.49C824.519 283.54 817.335 273.645 817.335 273.645C807.394 256.426 781.816 229.045 781.816 229.045C760.627 215.712 750.113 184.77 750.113 184.77C750.8 174.605 731.27 143.466 723.467 128.142L645.024 176.445Z" fill="#003DA5" style="fill:#003DA5;fill:color(display-p3 0.0000 0.2392 0.6471);fill-opacity:1;"/>
</svg>
