<svg width="1024" height="1024" viewBox="0 0 1024 1024" fill="none" xmlns="http://www.w3.org/2000/svg">
<path fill-rule="evenodd" clip-rule="evenodd" d="M354.975 777.151C260.627 811.462 196.88 824.946 173.981 829.137C164.358 811.967 162.992 793.144 163.486 780.521C178.871 779.37 207.306 773.53 263.595 756.868C292.68 748.262 321.086 739.124 339.153 733.201L354.975 777.151ZM893.398 480.239C862.162 499.969 700.591 595.582 591.657 659.709C585.325 663.453 579.091 667.088 572.926 670.643C484.144 721.882 411.514 755.783 376.42 769.201L375.621 769.495C372.772 770.57 370.055 771.562 367.268 772.6L362.146 758.372C384.082 750.342 455.792 721.486 586.883 644.823C587.752 644.34 622.417 625.089 669.558 597.881C738.722 557.962 834.606 500.986 889.918 461.064C892.752 469.95 893.42 476.397 893.398 480.239ZM172.31 757.896C189.08 737.432 225.936 716.957 225.936 716.957C237.649 710.282 248.864 704.621 257.292 700.72C260.954 710.954 267.715 730.22 271.017 738.692C232.762 750.262 190.856 761.836 167.831 764.698C168.997 762.45 170.489 759.903 172.31 757.896ZM884.995 448.444C794.197 514.706 582.695 632.167 580.391 633.445C451.429 708.899 379.065 738.1 357.692 746.017L352.141 730.605L360.489 726.545L473.681 671.559L474.378 671.21L652.574 573.266L653.046 572.993L798.306 486.235L799.062 485.748L876.788 432.908C880.185 438.57 882.83 443.709 884.995 448.444ZM295.892 662.679C294.286 659.897 293.919 656.713 294.522 653.586C283.841 645.611 274.007 634.796 274.007 634.796C275.765 625.179 287.442 613.587 287.442 613.587C284.459 618.991 311.721 638.703 311.721 638.703C311.793 638.812 311.833 638.9 311.902 639.001C317.57 638.634 322.881 640.915 325.569 645.564C329.569 652.493 326.194 661.946 317.991 666.678C309.784 671.402 299.895 669.612 295.892 662.679ZM330.111 558.358C342.859 570.96 350.724 580.493 355.545 587.796C362.978 585.083 370.974 587.222 374.483 593.298C378.483 600.223 375.09 609.683 366.894 614.415C358.731 619.126 348.824 617.339 344.824 610.413C343.029 607.305 342.786 603.688 343.731 600.223L317.221 580.507C317.577 570.52 330.111 558.358 330.111 558.358ZM530.536 575.06C534.558 582.018 532.182 590.901 525.232 594.914C518.261 598.934 509.375 596.552 505.356 589.59C501.346 582.646 503.74 573.792 510.708 569.772C517.654 565.763 526.526 568.113 530.536 575.06ZM364.449 505.555L399.896 535.247C401.077 536.75 402.134 538.246 403.078 539.71C409.61 538.424 416.081 540.687 419.14 545.978C423.139 552.907 419.688 562.407 411.518 567.121C403.329 571.846 393.458 570.037 389.458 563.108C388.372 561.223 387.867 559.168 387.809 557.065C386.981 556.695 386.465 556.437 386.465 556.437L352.867 525.724C350.669 513.508 364.449 505.555 364.449 505.555ZM598.792 535.668C602.81 542.626 600.445 551.505 593.517 555.504C586.567 559.513 577.659 557.141 573.641 550.18C569.631 543.236 572.043 534.371 578.996 530.358C585.924 526.364 594.781 528.721 598.792 535.668ZM402.457 459.165L435.971 487.56C436.952 488.882 437.718 490.135 438.503 491.391C445.377 489.616 452.403 491.784 455.622 497.358C459.643 504.324 456.239 513.798 448.065 518.516C439.887 523.237 429.991 521.436 425.966 514.47C424.716 512.306 424.269 509.894 424.367 507.476C407.398 496.606 388.35 477.087 388.35 477.087C390.141 467.492 402.457 459.165 402.457 459.165ZM414.239 418.16C414.239 418.16 456.57 431.568 468.497 436.289C469.016 435.897 469.517 435.487 470.099 435.149C477.521 430.867 486.93 433.221 491.075 440.397C495.231 447.591 492.554 456.902 485.136 461.184C478.317 465.12 469.888 463.446 465.322 457.621C462.146 457.552 458.779 457 455.385 455.555L409.487 441.693C409.472 441.682 404.048 430.163 414.239 418.16ZM424.614 362.041L486.037 380.653C486.542 380.275 487.036 379.858 487.591 379.535C495.791 374.803 506.261 377.635 510.991 385.825C515.707 393.988 512.913 404.451 504.717 409.183C496.594 413.868 486.233 411.122 481.466 403.078C456.918 399.53 421.319 385.959 421.319 385.959C414.718 378.787 424.614 362.041 424.614 362.041ZM439.19 304.742L490.694 319.29C491.333 318.778 491.969 318.27 492.688 317.856C500.884 313.127 511.315 315.942 516.048 324.138C520.775 332.32 518.014 342.79 509.818 347.518C501.644 352.236 491.137 349.425 486.411 341.243C486.273 341.011 486.204 340.749 486.08 340.517C462.335 339.565 431.397 325.133 431.397 325.133C428.563 309.645 439.19 304.742 439.19 304.742ZM457.572 239.137L502.16 256.213C502.301 256.129 502.403 256.02 502.537 255.941C510.711 251.227 520.996 253.627 525.418 261.279C529.872 268.996 526.805 279.088 518.631 283.806C510.464 288.52 500.172 286.137 495.718 278.42C495.46 277.977 495.319 277.505 495.112 277.036C474.233 273.848 450.848 261.352 450.848 261.352C452.486 249.404 457.572 239.137 457.572 239.137Z" fill="white" style="fill:white;fill-opacity:1;"/>
</svg>
